<svg version="1" xmlns="http://www.w3.org/2000/svg" width="682.667" height="682.667" viewBox="0 0 512.000000 512.000000"><path d="M218.6 2.6c-99 15.5-178.3 83.8-207.7 179.3-3.1 9.9-8.2 34.3-9.4 44.4L.9 232l66.7-.2 66.7-.3 2.3-8.5c6-22.3 16.8-40.4 34.1-57.1 15.6-15 34.2-25.6 53.6-30.5l6.7-1.6V67.4c0-62.6-.1-66.4-1.7-66.3-1 .1-5.8.7-10.7 1.5zM281 67.3v66.2l8.3 2.2c20.5 5.3 38.5 15.8 54.8 32.2 16.4 16.3 26.7 33.8 32.2 54.6l2.4 9 66.2.3 66.2.2-.6-5.7c-2.2-19.2-8.8-44.9-16.6-64.8-30.1-77.1-99.8-136.9-180.3-155-8.8-1.9-29.5-5.5-32.1-5.5-.3 0-.5 29.8-.5 66.3zM241.5 182.4c-27.8 6.5-48.1 25.3-56.6 52.6-3.4 10.8-3.4 30.2 0 41 7.8 25.3 25.7 43.2 51.1 51.2 10.8 3.3 30.2 3.3 41 0 25.3-8 43.2-25.9 51.2-51.2 1.9-6.2 2.3-9.7 2.3-20.5s-.4-14.3-2.3-20.5c-7.9-25.1-25.8-43.2-50.7-51-9-2.8-27.2-3.6-36-1.6zM1.6 286.7c1.2 9.7 6.4 34.1 9.3 43.4C23.5 370.9 45.3 407.2 75 437c29.7 29.7 66.9 52 107 64.2 9.6 2.9 34.1 8.1 43.8 9.2l5.2.7V377.2l-6.7-1.6c-37.4-9.4-70.8-39.8-84.2-76.6-1.7-4.7-3.5-10.4-4.1-12.8l-1.1-4.2H1l.6 4.7zM377 286.2c-5.8 22.5-15.9 39.9-32.9 56.9-16.3 16.4-34.3 26.9-54.8 32.2l-8.3 2.2v133.6l5.3-.7c9.6-1.1 34.1-6.3 43.7-9.2 40.1-12.2 77.3-34.5 107-64.2 29.7-29.8 51.5-66.1 64.1-106.9 2.9-9.3 8.1-33.7 9.3-43.4l.6-4.7H378.1l-1.1 4.2z"/></svg>