<?xml version="1.0" standalone="no"?>
<!DOCTYPE svg PUBLIC "-//W3C//DTD SVG 20010904//EN"
 "http://www.w3.org/TR/2001/REC-SVG-20010904/DTD/svg10.dtd">
<svg version="1.0" xmlns="http://www.w3.org/2000/svg"
 width="300.000000pt" height="300.000000pt" viewBox="0 0 300.000000 300.000000"
 preserveAspectRatio="xMidYMid meet">
<metadata>
Created by potrace 1.11, written by Peter Selinger 2001-2013
</metadata>
<g transform="translate(0.000000,300.000000) scale(0.100000,-0.100000)"
fill="#000000" stroke="none">
<path d="M1325 2994 c-242 -35 -475 -122 -655 -243 -122 -83 -117 -77 -94
-103 12 -13 76 -87 143 -166 l123 -143 26 17 c142 94 238 139 379 176 119 31
377 33 493 4 127 -32 268 -95 368 -164 15 -10 32 -22 39 -25 6 -4 60 50 134
136 67 78 132 152 143 165 l20 22 -24 18 c-204 149 -391 234 -620 284 -71 15
-140 21 -270 23 -96 2 -188 1 -205 -1z"/>
<path d="M414 2538 c-184 -193 -309 -422 -373 -683 -31 -128 -41 -214 -41
-362 0 -513 264 -989 702 -1266 151 -96 315 -160 518 -203 96 -21 357 -29 465
-15 385 51 719 233 964 526 233 278 351 604 351 970 0 378 -138 731 -396 1013
-41 45 -79 82 -84 82 -5 0 -72 -73 -149 -162 l-140 -162 42 -49 c147 -172 218
-309 269 -517 8 -35 13 -115 13 -215 -1 -143 -4 -171 -28 -260 -15 -55 -43
-133 -62 -174 l-35 -73 -281 273 c-155 151 -287 283 -294 294 -8 11 -76 155
-152 320 l-138 299 -3 -479 -2 -480 87 -85 c49 -47 179 -174 290 -281 l203
-196 -53 -36 c-78 -54 -216 -115 -325 -144 -84 -23 -118 -26 -257 -27 -163 -1
-203 5 -335 46 -72 23 -241 107 -279 139 l-24 20 39 40 c21 22 153 149 291
282 l253 242 0 479 c0 268 -4 476 -9 470 -4 -5 -70 -144 -146 -309 l-137 -300
-217 -213 c-119 -116 -251 -244 -293 -283 l-77 -70 -29 58 c-90 179 -124 425
-87 633 35 200 116 368 255 530 l58 66 -139 162 c-77 89 -143 162 -148 162 -4
0 -35 -28 -67 -62z"/>
</g>
</svg>
